<svg width="91" height="88" viewBox="0 0 91 88" fill="none" xmlns="http://www.w3.org/2000/svg">
<path d="M73.6851 44.9803C73.6851 29.1748 60.8158 16.3048 45.0103 16.3046C37.7148 16.3046 31.0606 19.0388 25.9731 23.5565C22.7996 26.3747 17.9418 26.0865 15.1235 22.913C12.3053 19.7394 12.5935 14.8816 15.7671 12.0634C23.5396 5.16121 33.7858 0.935425 45.0103 0.935425C69.3044 0.935615 89.0552 20.6862 89.0552 44.9803C89.0551 53.7425 86.4734 61.9199 82.0532 68.7841L88.02 74.4257C91.1039 77.3416 91.2396 82.2059 88.3237 85.2899C85.4079 88.3736 80.5445 88.5101 77.4604 85.5946L66.4604 75.1942C63.4045 72.3049 63.2388 67.4962 66.0884 64.4032C70.8082 59.2801 73.685 52.458 73.6851 44.9803ZM0.965332 44.9901C0.965332 40.7458 4.40559 37.3046 8.6499 37.3046C12.8942 37.3046 16.3345 40.7458 16.3345 44.9901C16.3345 55.1058 21.6027 64.0403 29.5884 69.161C33.161 71.4521 34.1997 76.2054 31.9087 79.7782C29.6176 83.3509 24.8643 84.3905 21.2915 82.0995C9.09729 74.2802 0.965372 60.5744 0.965332 44.9901Z" fill="#3E95FF"/>
<path d="M45.0099 58.3C52.3608 58.3 58.3199 52.3409 58.3199 44.99C58.3199 37.6391 52.3608 31.68 45.0099 31.68C37.659 31.68 31.6999 37.6391 31.6999 44.99C31.6999 52.3409 37.659 58.3 45.0099 58.3Z" fill="#3E95FF"/>
</svg>
